<?xml version="1.0" standalone="no"?>
<!DOCTYPE svg PUBLIC "-//W3C//DTD SVG 20010904//EN"
 "http://www.w3.org/TR/2001/REC-SVG-20010904/DTD/svg10.dtd">
<svg version="1.0" xmlns="http://www.w3.org/2000/svg"
 width="1280.000000pt" height="807.000000pt" viewBox="0 0 1280.000000 807.000000"
 preserveAspectRatio="xMidYMid meet">
<metadata>
Created by potrace 1.12, written by Peter Selinger 2001-2015
</metadata>
<g transform="translate(0.000000,807.000000) scale(0.100000,-0.100000)"
fill="#000000" stroke="none">
<path d="M0 4035 l0 -4035 6400 0 6400 0 0 4035 0 4035 -6400 0 -6400 0 0
-4035z m5865 2316 c-392 -116 -645 -419 -765 -916 -61 -254 -74 -375 -74 -705
0 -350 17 -494 94 -795 41 -162 138 -362 230 -474 133 -163 327 -294 520 -350
30 -9 26 -10 -25 -5 -81 8 -266 63 -399 118 -189 78 -337 178 -499 335 -119
115 -196 220 -276 372 -117 224 -177 462 -188 745 -21 566 182 1028 596 1352
193 151 426 256 701 317 125 28 169 31 85 6z m837 -16 c242 -59 448 -151 623
-275 124 -87 310 -276 382 -386 112 -173 197 -387 227 -576 92 -570 -29 -1084
-343 -1454 -221 -261 -558 -454 -923 -528 -94 -19 -159 -21 -82 -2 134 33 313
144 431 270 176 186 286 414 347 716 37 183 47 288 53 550 12 542 -83 988
-272 1270 -131 197 -358 369 -570 432 -57 17 -58 18 -15 13 25 -3 89 -16 142
-30z m-2477 -4001 c77 -25 163 -102 202 -182 22 -47 27 -71 27 -137 1 -68 -3
-89 -27 -137 -36 -74 -97 -133 -177 -172 -58 -28 -75 -31 -155 -31 -82 0 -97
3 -155 32 -203 101 -267 321 -145 499 53 77 118 117 240 148 35 9 129 -1 190
-20z m1794 15 c24 -5 62 -18 84 -29 22 -11 42 -20 43 -20 1 0 5 12 8 26 4 16
12 24 23 22 14 -2 16 -16 14 -86 -3 -97 -7 -112 -31 -112 -12 0 -20 11 -24 35
-8 43 -50 94 -93 111 -39 17 -130 18 -170 3 -95 -35 -151 -164 -140 -323 6
-92 30 -157 73 -198 80 -75 222 -78 294 -7 24 24 30 39 30 73 0 51 -16 75 -52
78 -19 2 -28 8 -28 20 0 16 12 18 120 18 99 0 120 -3 120 -15 0 -8 -11 -17
-25 -21 -35 -9 -45 -32 -45 -108 0 -63 -1 -66 -24 -66 -13 0 -59 -17 -102 -37
-72 -35 -86 -38 -164 -38 -67 0 -95 5 -135 23 -95 44 -152 122 -176 241 -28
146 47 323 160 378 83 40 162 50 240 32z m-1059 -12 c0 -7 -14 -17 -32 -22
-17 -6 -35 -17 -41 -25 -6 -11 16 -79 78 -235 48 -121 89 -224 92 -229 6 -8
31 48 77 169 13 33 42 107 65 164 49 118 49 148 1 158 -17 3 -30 12 -30 19 0
11 23 14 105 14 86 0 105 -3 105 -15 0 -8 -11 -17 -24 -21 -38 -9 -61 -42
-104 -149 -180 -443 -201 -490 -216 -493 -9 -2 -20 6 -25 20 -5 13 -36 88 -69
168 -33 80 -82 197 -108 260 -53 131 -84 178 -125 192 -16 5 -29 16 -29 24 0
11 27 14 140 14 108 0 140 -3 140 -13z m1992 -1 c32 -7 69 -21 83 -30 97 -64
83 -216 -25 -271 -27 -14 -57 -25 -66 -25 -8 0 -14 -4 -12 -8 2 -5 48 -63 103
-130 95 -114 119 -134 188 -156 9 -3 17 -12 17 -21 0 -13 -13 -15 -87 -13
l-87 3 -113 144 c-112 145 -139 170 -180 171 -22 0 -23 -3 -23 -104 0 -117 12
-164 43 -170 67 -14 77 -18 77 -31 0 -13 -24 -15 -150 -15 -143 0 -150 1 -150
20 0 15 7 20 29 20 60 0 61 5 61 291 0 153 -4 268 -10 279 -5 10 -23 21 -40
25 -16 4 -30 13 -30 21 0 19 290 20 372 0z m788 0 c0 -7 -14 -16 -30 -20 -56
-11 -62 -44 -58 -321 3 -264 6 -275 59 -275 22 0 29 -5 29 -20 0 -19 -7 -20
-141 -20 -128 0 -140 2 -137 18 2 11 14 18 35 20 57 6 58 10 58 297 0 284 -1
288 -56 300 -16 4 -29 13 -29 21 0 11 25 14 135 14 108 0 135 -3 135 -14z
m765 -16 c172 -67 256 -278 180 -449 -33 -72 -84 -122 -164 -160 -54 -25 -63
-26 -274 -29 -207 -3 -219 -2 -215 15 2 12 14 19 33 21 65 8 65 8 65 294 0
152 -4 267 -10 278 -5 10 -23 21 -40 25 -17 4 -30 13 -30 22 0 13 26 14 198
11 178 -4 203 -6 257 -28z"/>
<path d="M3994 2291 c-54 -25 -108 -90 -129 -157 -24 -76 -18 -222 12 -279 92
-175 335 -180 430 -10 26 47 28 57 28 165 -1 128 -10 161 -66 225 -19 21 -52
46 -74 56 -53 24 -147 24 -201 0z"/>
<path d="M6757 2303 c-4 -3 -7 -65 -7 -136 l0 -130 77 7 c42 4 89 14 105 22
79 41 75 195 -6 229 -36 15 -157 21 -169 8z"/>
<path d="M8227 2303 c-11 -10 -8 -489 3 -517 16 -42 55 -60 129 -59 158 1 241
97 241 278 0 108 -22 170 -84 231 -33 34 -65 56 -91 63 -44 12 -188 15 -198 4z"/>
</g>
</svg>
